<svg xmlns="http://www.w3.org/2000/svg" width="1362" height="1922" viewBox="0 0 1362 1922" version="1.1"><path d="M 794.748 325.668 L 666 497.336 666 793.668 C 666 956.651, 666.337 1089.982, 666.750 1089.959 C 667.163 1089.937, 823.650 881.299, 1014.500 626.321 C 1339.727 191.813, 1361.519 162.450, 1361.805 158.362 L 1362.110 154 1142.803 154 L 923.496 154 794.748 325.668 M 908.287 1075.250 C 906.764 1077.237, 573.180 1658.307, 572.447 1660.250 C 571.818 1661.914, 587.052 1662, 883.643 1662.002 C 1055.164 1662.003, 1208.035 1662.301, 1223.355 1662.665 C 1248.304 1663.258, 1251.173 1663.164, 1250.855 1661.765 C 1250.366 1659.615, 910.654 1074.070, 909.872 1074.031 C 909.527 1074.014, 908.814 1074.563, 908.287 1075.250" stroke="none" fill="#e48c3c" fill-rule="evenodd"/><path d="M 2.918 370.250 C 2.874 573.888, 2.362 793.375, 1.782 858 C 0.533 997.113, 0.529 1016.257, 1.693 1341.500 L 2.591 1592.500 6.231 1606.500 C 18.122 1652.236, 33.776 1691.047, 50.902 1717.251 C 89.557 1776.398, 140.919 1822.307, 199.487 1850.061 C 239.012 1868.790, 291.599 1884.087, 334.890 1889.446 C 349.718 1891.282, 375.356 1892.531, 380.068 1891.647 L 383.500 1891.003 383.231 1087.344 L 382.962 283.685 380.921 275.592 C 369.846 231.684, 348.948 187.478, 323.303 153.714 C 313.222 140.442, 285.743 112.929, 270.500 100.847 C 238.514 75.493, 205.894 55.706, 175.630 43.301 C 138.167 27.944, 94.227 14.763, 55 7.116 C 39.431 4.081, 11.265 -0, 5.884 -0 L 3 0 2.918 370.250" stroke="none" fill="#1174ac" fill-rule="evenodd"/></svg>